<svg width="70" height="70" viewBox="0 0 70 70" fill="none" xmlns="http://www.w3.org/2000/svg">
<path d="M57.7221 14.2935L57.7165 14.2831C53.3403 6.11762 44.644 0.954295 35.0212 0.808006H34.9989H34.9766C25.3548 0.954295 16.6585 6.11762 12.2768 14.2935C9.803 18.9347 8.75034 24.2014 9.25014 29.4369C9.6685 33.9931 11.2198 38.8376 13.861 43.8357C18.5847 52.7748 26.0298 60.9323 32.6374 67.8766L32.6712 67.9109C33.1625 68.3947 33.9321 69.032 34.974 69.032H35.0249C36.0667 69.032 36.8364 68.3948 37.3278 67.9109L37.3616 67.8766C43.9692 60.9323 51.4142 52.7748 56.138 43.8357C58.7791 38.8376 60.3304 33.9931 60.7488 29.4369C61.2486 24.2014 60.1959 18.9347 57.7221 14.2935Z" fill="#FFDE55"/>
<path d="M57.1752 14.2935L57.1696 14.283C52.7933 6.11762 44.0971 0.954296 34.4743 0.808144H34.452H34.4297C31.8037 0.846605 29.1971 1.26568 26.6914 2.05228C26.9438 2.04135 27.1966 2.03232 27.4503 2.02836H27.4718H27.4934C36.8104 2.17 45.2306 7.16898 49.4678 15.0756L49.4733 15.0858C51.8685 19.5796 52.8877 24.6791 52.4038 29.7484C51.9987 34.1599 50.4966 38.8506 47.9393 43.6901C43.5405 52.0147 33.3588 62.0597 30.2142 65.3409C30.7499 65.9097 31.5637 67.3233 32.0904 67.8766L32.1242 67.9108C32.6156 68.3947 33.3852 69.0319 34.4271 69.0319H34.4779C35.5197 69.0319 36.2895 68.3947 36.7808 67.9108L36.8146 67.8766C43.4222 60.9323 50.8672 52.7748 55.591 43.8357C58.2321 38.8374 59.7835 33.9931 60.2019 29.4369C60.7017 24.2014 59.649 18.9347 57.1752 14.2935Z" fill="#E5BA03"/>
<path d="M25.4617 38.9193C25.1793 38.919 24.9086 38.8066 24.7089 38.6069C24.5093 38.4072 24.3969 38.1365 24.3966 37.8541V26.1226H21.5456C21.3338 26.1226 21.1267 26.0594 20.9509 25.9411C20.7752 25.8228 20.6387 25.6548 20.5589 25.4585C20.4791 25.2623 20.4597 25.0467 20.503 24.8393C20.5464 24.6319 20.6507 24.4422 20.8024 24.2944L34.2566 11.1948C34.4543 10.9987 34.7214 10.8887 34.9998 10.8887C35.2783 10.8887 35.5454 10.9987 35.743 11.1948L49.1962 24.294C49.348 24.4418 49.4522 24.6315 49.4957 24.8389C49.5391 25.0462 49.5197 25.2618 49.4399 25.4581C49.3601 25.6544 49.2237 25.8224 49.0479 25.9407C48.8722 26.0591 48.6651 26.1223 48.4532 26.1223H45.6028V37.8539C45.6025 38.1362 45.4902 38.407 45.2905 38.6067C45.0908 38.8063 44.8201 38.9187 44.5378 38.919L25.4617 38.9193Z" fill="#00DDF9"/>
<path d="M32.6758 14.7201L41.8359 23.8803C41.4482 23.8803 41.0764 24.0343 40.8023 24.3084C40.5281 24.5825 40.3741 24.9544 40.3741 25.3421V37.5521H45.3562V25.1553H49.4409L35.7041 11.4183L32.6758 14.7201Z" fill="#02B2BF"/>
<path d="M58.3134 13.8368L58.3077 13.8261C53.8174 5.44811 44.8949 0.150391 35.022 0H34.9992H34.9764C25.1035 0.150391 16.181 5.4477 11.685 13.8359C9.14661 18.5981 8.06656 24.0023 8.57954 29.3743C9.0087 34.0491 10.6005 39.0197 13.31 44.148C18.1565 53.3196 25.7954 61.689 32.575 68.8146L32.6096 68.8499C33.114 69.3461 33.9037 70 34.9725 70H35.0248C36.0936 70 36.8841 69.3461 37.3877 68.8499L37.4223 68.8146C44.2024 61.6894 51.8413 53.3203 56.6879 44.148C59.3979 39.0197 60.9897 34.0491 61.4183 29.3743C61.9313 24.0026 60.8514 18.5988 58.3134 13.8368ZM54.0285 42.7427C49.3652 51.5674 41.8987 59.7461 35.2621 66.722C35.1799 66.8041 35.092 66.8803 34.9992 66.9502C34.9064 66.8803 34.8185 66.8041 34.7363 66.722C28.0997 59.7461 20.6332 51.5674 15.9699 42.7427C10.5454 32.4777 10.0148 23.4802 14.3418 15.2469C18.313 7.8374 26.2266 3.14932 34.9992 3.00781C43.7696 3.14891 51.6818 7.83494 55.6539 15.2413C59.9832 23.4842 59.4516 32.4801 54.0285 42.7427Z" fill="#0C1A40"/>
<path d="M36.2203 10.7051C35.8951 10.3846 35.4568 10.2049 35.0002 10.2049C34.5436 10.2049 34.1053 10.3846 33.78 10.7051L20.3257 23.8046C20.0764 24.0473 19.9052 24.3588 19.834 24.6993C19.7627 25.0398 19.7946 25.3938 19.9256 25.716C20.0566 26.0383 20.2807 26.3141 20.5693 26.5083C20.8579 26.7025 21.1979 26.8062 21.5458 26.8062H23.7132V37.8541C23.7137 38.3178 23.8981 38.7623 24.2259 39.0901C24.5538 39.418 24.9983 39.6024 25.4619 39.6029H44.5378C45.0014 39.6024 45.4459 39.418 45.7738 39.0901C46.1016 38.7623 46.286 38.3178 46.2865 37.8541V26.8062H48.4541C48.8019 26.8062 49.1419 26.7025 49.4305 26.5082C49.7191 26.314 49.9432 26.0381 50.0742 25.7159C50.2051 25.3936 50.237 25.0396 50.1657 24.6991C50.0944 24.3586 49.9231 24.0472 49.6739 23.8045L36.2203 10.7051ZM45.0275 23.7978C44.5638 23.7984 44.1194 23.9828 43.7915 24.3106C43.4637 24.6385 43.2792 25.0829 43.2787 25.5466V36.5946H26.721V25.5471C26.7204 25.0835 26.536 24.639 26.2082 24.3112C25.8803 23.9833 25.4358 23.7989 24.9722 23.7984H24.6441L34.9998 13.7154L45.356 23.7984L45.0275 23.7978Z" fill="#0C1A40"/>
</svg>
