<svg width="70" height="70" viewBox="0 0 70 70" fill="none" xmlns="http://www.w3.org/2000/svg">
<g clip-path="url(#clip0_215_3516)">
<path d="M63.6967 64.2334C63.6967 66.0955 62.1872 67.605 60.3251 67.605H9.67401C7.8119 67.605 6.30237 66.0955 6.30237 64.2334V30.6208C6.30237 29.7034 5.30412 28.8243 5.95896 28.1817L21.1223 13.2993L24.8644 10.9683L26.2832 8.2341L32.7355 1.90121C34.0203 0.736867 35.9788 0.736867 37.2636 1.90121L43.716 8.2341L45.1346 10.9683L49.1482 13.5659L64.04 28.1818C64.6949 28.8245 63.6966 29.7035 63.6966 30.621L63.6967 64.2334Z" fill="#8EBAFF"/>
<path d="M17.5371 16.8178H52.4615L43.7157 8.23396H26.2829L17.5371 16.8178Z" fill="#7AA3FF"/>
<path d="M58.3371 36.7441V14.386C58.3371 12.4985 56.8069 10.9683 54.9194 10.9683H13.7146C11.8271 10.9683 10.2969 12.4985 10.2969 14.386V36.7441L29.7725 50.5852L33.3767 48.6046C34.3879 48.0488 35.6131 48.0488 36.6244 48.6046L40.2285 50.5852L58.3371 36.7441Z" fill="#F7F9FA"/>
<path d="M40.2285 51.9521L36.6244 49.9715C35.6131 49.4158 34.3879 49.4158 33.3767 49.9715L29.7725 51.9521L10.2969 36.744V28.683L28.6842 47.0377C29.3292 47.6816 30.3218 47.8226 31.1205 47.3836L33.3767 46.1437C34.3879 45.5879 35.6131 45.5879 36.6244 46.1437L38.8806 47.3836C39.6794 47.8226 40.6719 47.6816 41.3169 47.0377L54.5998 33.7784C55.242 33.1372 55.6029 32.2671 55.6029 31.3596V14.3859C55.6029 12.4983 54.0727 10.9681 52.1852 10.9681H56.2865C58.174 10.9681 59.7042 12.4983 59.7042 14.3859V36.744L40.2285 51.9521Z" fill="#DCE6EB"/>
<path d="M4.93555 65.6005C4.93555 67.3621 6.28677 68.8072 8.00917 68.9583L29.7718 51.9522L5.95922 28.1817C5.30439 28.8243 4.93555 29.7034 4.93555 30.6208V65.6005Z" fill="#FFDF41"/>
<path d="M64.7914 65.6005C64.7914 67.3621 63.7136 68.8072 61.9912 68.9583L40.2285 51.9522L64.0411 28.1817C64.6959 28.8243 64.7914 29.7034 64.7914 30.6208V65.6005Z" fill="#FFDF41"/>
<path d="M65.0635 30.6208C65.0635 29.7034 64.6947 28.8243 64.0399 28.1817L60.9623 31.2538V65.6005C60.9623 66.361 60.71 67.0623 60.2852 67.6262L61.9899 68.9583C63.7123 68.8074 65.0635 67.3621 65.0635 65.6005V30.6208Z" fill="#F3CB00"/>
<path d="M8.30719 68.9721H61.6924C63.3242 67.3939 63.3242 67.3939 65.0641 65.6004L36.6236 49.9715C35.6124 49.4158 34.3872 49.4158 33.376 49.9715L4.93555 65.6004C4.93555 67.4626 6.44508 68.9721 8.30719 68.9721Z" fill="#FED402"/>
<path d="M60.9634 63.3467V65.6005C60.9634 67.4626 59.4539 68.9721 57.5918 68.9721H61.6931C63.5552 68.9721 65.0647 67.4626 65.0647 65.6005L60.9634 63.3467Z" fill="#FAC600"/>
<path d="M39.275 22.8649C39.2779 22.2985 38.821 21.8373 38.2548 21.8345C38.253 21.8345 38.2514 21.8345 38.2496 21.8345C37.6857 21.8345 37.2273 22.2903 37.2244 22.8548L37.2218 23.3713C36.4963 22.8128 35.6129 22.4966 34.6297 22.4966C32.2114 22.4966 29.7099 24.5888 29.7099 28.0898C29.7099 31.2829 31.8725 33.8808 34.5307 33.8808C35.6863 33.8808 36.7325 33.3937 37.5448 32.5736C37.7062 32.9002 37.9178 33.2009 38.1753 33.4598C38.7471 34.0344 39.4836 34.3509 40.2496 34.3509C42.4662 34.3509 43.8698 32.8077 44.4445 31.3636C45.3364 29.121 45.4968 27.2314 44.9644 25.2371C44.9616 25.2266 44.9586 25.2159 44.9554 25.2054C44.1495 22.5352 42.3465 20.3488 39.8785 19.049C37.4107 17.7493 34.5872 17.4999 31.9275 18.3467C29.4073 19.1489 27.3106 20.8785 26.0236 23.2168C24.7362 25.5558 24.3977 28.2523 25.0703 30.8097C25.653 33.025 26.9108 34.9362 28.7081 36.3363C30.4386 37.6845 32.5941 38.4604 34.7775 38.5208C34.7872 38.5211 34.7967 38.5212 34.8063 38.5212C35.3593 38.5212 35.8152 38.0806 35.8308 37.5242C35.8464 36.9581 35.4003 36.4866 34.8342 36.471C31.1838 36.3701 27.9844 33.8276 27.0536 30.2883C26.5153 28.2418 26.7877 26.0817 27.8201 24.2056C28.8526 22.3296 30.5321 20.9429 32.5495 20.3008C34.6818 19.6221 36.9451 19.8219 38.9229 20.8634C40.8953 21.9022 42.3378 23.6476 42.9865 25.7794C43.4213 27.4211 43.1591 29.0469 42.5392 30.6058C42.3365 31.1153 41.7076 32.3004 40.2498 32.3004C39.958 32.3004 39.7356 32.1208 39.6291 32.0136C39.3804 31.7636 39.2329 31.3955 39.2347 31.0292L39.275 22.8649ZM34.5307 31.8301C33.1985 31.8301 31.7606 30.4 31.7606 28.0898C31.7606 25.8722 33.2192 24.5473 34.6297 24.5473C36.1041 24.5473 37.1452 25.9169 37.1994 27.8983L37.1976 28.2731C37.1194 30.2531 35.9533 31.8301 34.5307 31.8301Z" fill="#0C1A40"/>
<path d="M66.0895 65.6043C66.0895 65.6039 66.0895 65.6034 66.0895 65.603V30.6234C66.0895 29.4433 65.6083 28.2927 64.7693 27.4634C64.7682 27.4623 64.7672 27.4609 64.7661 27.4598C64.7656 27.4593 64.7649 27.4587 64.7642 27.4581C64.7623 27.4563 64.7607 27.4542 64.7587 27.4525L60.7288 23.4973V21.1848C60.7288 20.6184 60.2699 20.1595 59.7035 20.1595C59.1371 20.1595 58.6782 20.6184 58.6782 21.1848V32.0884L40.0477 50.6858L37.1175 49.0758C35.7918 48.347 34.2083 48.3469 32.8823 49.0757L29.9521 50.6858L11.3215 32.0884V14.3884C11.3215 13.0693 12.3948 11.996 13.7139 11.996H56.2858C57.6049 11.996 58.6782 13.0693 58.6782 14.3884V16.8204C58.6782 17.3867 59.1371 17.8457 59.7035 17.8457C60.2699 17.8457 60.7288 17.3867 60.7288 16.8204V14.3884C60.7288 11.9385 58.7358 9.94541 56.2858 9.94541H46.9211L37.9822 1.172C37.9725 1.16243 37.9625 1.153 37.9524 1.14398C36.2692 -0.381278 33.7305 -0.381415 32.0472 1.14398C32.0371 1.153 32.0273 1.16243 32.0176 1.172L23.0785 9.94541H13.7138C11.264 9.94541 9.27077 11.9385 9.27077 14.3884V23.4975L5.24088 27.4526C5.23924 27.4542 5.2376 27.456 5.23596 27.4578C5.23514 27.4586 5.23432 27.4592 5.2335 27.46C5.23199 27.4615 5.23076 27.4631 5.22939 27.4645C4.3911 28.2938 3.91016 29.444 3.91016 30.6234V42.3237C3.91016 42.8901 4.36922 43.3491 4.93547 43.3491C5.50172 43.3491 5.96079 42.8901 5.96079 42.3237V30.6234C5.96079 30.3369 6.01602 30.0546 6.11527 29.7889L9.57167 33.2392L28.0798 51.7145L5.96092 63.8697V46.7922C5.96092 46.2258 5.50185 45.7669 4.93561 45.7669C4.36936 45.7669 3.91029 46.2258 3.91029 46.7922V65.603V65.6041C3.91029 65.6096 3.91057 65.6149 3.9107 65.6204C3.92014 68.0369 5.88847 70 8.30725 70H46.1613C46.7277 70 47.1866 69.5411 47.1866 68.9747C47.1866 68.4083 46.7277 67.9494 46.1613 67.9494H8.30725C7.20921 67.9494 6.28766 67.1902 6.0331 66.1698L30.2657 52.8533L33.8698 50.8727C34.5775 50.4839 35.4222 50.4837 36.1298 50.8728L39.7338 52.8533L63.9665 66.17C63.712 67.1902 62.7903 67.9494 61.6924 67.9494H50.6299C50.0635 67.9494 49.6046 68.4083 49.6046 68.9747C49.6046 69.5411 50.0635 70 50.6299 70H61.6925C64.1112 70 66.0796 68.0369 66.0891 65.6204C66.0892 65.6149 66.0895 65.6096 66.0895 65.6043ZM33.4381 2.65119C34.3319 1.85391 35.6681 1.85377 36.5616 2.65119L43.9937 9.94541H26.0061L33.4381 2.65119ZM9.27091 30.0413L7.41673 28.1904L9.27091 26.3707V30.0413ZM60.428 33.2392L63.8844 29.7888C63.9836 30.0544 64.0388 30.3369 64.0388 30.6234V63.8696L41.9197 51.7145L60.428 33.2392ZM62.583 28.1904L60.7288 30.0413V26.3707L62.583 28.1904Z" fill="#0C1A40"/>
</g>
<defs>
<clipPath id="clip0_215_3516">
<rect width="70" height="70" fill="white"/>
</clipPath>
</defs>
</svg>
